<?xml version="1.0" encoding="UTF-8" standalone="no"?>
<svg width="342px" height="210px" viewBox="0 0 342 210" version="1.1" xmlns="http://www.w3.org/2000/svg" xmlns:xlink="http://www.w3.org/1999/xlink">
    <!-- Generator: Sketch 3.8.3 (29802) - http://www.bohemiancoding.com/sketch -->
    <title>Miesfeld logo_cmyk</title>
    <desc>Created with Sketch.</desc>
    <defs>
        <polygon id="path-1" points="0.395 209.94 240.581 209.94 240.581 0.916 0.395 0.916 0.395 209.94"></polygon>
    </defs>
    <g id="Page-1" stroke="none" stroke-width="1" fill="none" fill-rule="evenodd">
        <g id="Artboard-1">
            <g id="Miesfeld-logo_cmyk">
                <polyline id="Fill-1" fill="#BD9350" points="165.324 200.318 47.364 6.519 283.532 6.519 165.324 200.318"></polyline>
                <polygon id="Stroke-2" stroke="#AF8135" stroke-width="6" points="165.324 200.318 47.364 6.519 283.532 6.519"></polygon>
                <path d="M38.886,3.14 L163.667,208.468 L166.231,206.912 C166.231,206.912 45.543,8.32 42.835,3.862 C48.056,3.863 290.907,3.933 290.907,3.933 L290.04,0.933 L37.501,0.86 L38.886,3.14" id="Fill-4" fill="#E3CBA2"></path>
                <g id="Group-8" transform="translate(52.000000, 0.000000)">
                    <mask id="mask-2" fill="white">
                        <use xlink:href="#path-1"></use>
                    </mask>
                    <g id="Clip-6"></g>
                    <path d="M3.064,9.184 L0.395,9.184 L111.805,192.155 L114.237,190.432 C114.237,190.432 8.44,16.631 5.733,12.184 L224.733,12.184 L224.733,9.184 L3.064,9.184" id="Fill-5" fill="#752119" mask="url(#mask-2)"></path>
                    <polyline id="Fill-7" fill="#752119" mask="url(#mask-2)" points="111.645 208.439 114.208 210 240.581 2.476 238.019 0.916 111.645 208.439"></polyline>
                </g>
                <polyline id="Fill-9" fill="#E3CBA2" points="163.713 192.01 165.509 194.753 278.662 9.196 275.175 9.175 163.713 192.01"></polyline>
                <polygon id="Fill-10" fill="#8C3E2A" points="5.796 100.904 335.207 100.904 335.207 37.375 5.796 37.375"></polygon>
                <polygon id="Stroke-11" stroke="#AF8135" stroke-width="6" points="5.796 100.904 335.207 100.904 335.207 37.375 5.796 37.375"></polygon>
                <path d="M77.772,65.187 C79.572,65.907 81.252,67.647 82.032,69.687 L76.452,74.547 C75.672,72.387 73.752,70.587 72.192,70.587 L72.192,81.867 C72.192,84.147 72.192,86.247 72.492,88.527 L65.052,88.527 C65.352,86.247 65.352,84.147 65.352,81.867 L65.352,70.647 L60.132,75.147 C58.872,72.927 57.612,71.787 55.632,70.827 L61.392,65.847 C63.252,67.107 64.152,67.887 65.232,69.687 L65.352,69.687 L65.352,57.627 C65.352,54.807 60.192,53.607 55.752,53.607 C54.132,53.607 52.811,53.727 51.372,53.847 L51.372,73.167 C51.372,75.807 50.472,77.247 46.152,81.567 C50.592,81.987 52.452,82.407 56.952,84.087 L51.552,89.667 C47.412,88.047 45.012,87.687 40.271,86.907 C43.811,82.527 44.532,81.447 44.532,78.507 L44.532,60.507 C43.632,59.427 42.432,58.587 40.992,57.927 L53.532,50.727 C56.831,48.867 57.552,48.566 59.952,48.566 C66.552,48.566 71.172,50.667 72.012,54.507 L76.392,51.447 C79.392,49.347 80.952,48.566 83.292,48.566 C89.952,48.566 95.652,54.387 95.652,64.467 C95.652,71.487 93.012,77.127 86.352,82.287 L86.352,82.407 L93.072,82.407 C94.872,82.407 96.012,82.227 97.152,81.807 L92.892,87.687 C92.412,88.347 91.752,88.527 89.652,88.527 L79.812,88.527 C86.892,80.847 88.632,75.807 88.632,66.987 C88.632,59.907 85.992,53.967 78.792,53.967 C76.632,53.967 74.472,54.687 72.192,55.767 L72.192,69.687 L77.772,65.187" id="Fill-13" fill="#C59E5F"></path>
                <path d="M105.671,57.927 C108.731,59.847 109.631,60.867 109.631,63.267 L109.631,78.567 C109.631,81.447 110.111,82.227 112.511,84.687 L106.331,89.187 C104.051,86.967 102.791,85.047 102.791,82.887 L102.791,67.167 C102.791,65.427 102.611,64.647 99.671,62.847 L105.671,57.927 L105.671,57.927 Z M105.911,49.527 L113.771,46.466 L109.031,52.407 L101.051,55.467 L105.911,49.527 L105.911,49.527 Z" id="Fill-14" fill="#C59E5F"></path>
                <path d="M122.47,76.947 C124.63,82.287 129.19,83.127 132.79,83.127 C135.31,83.127 136.69,82.767 138.13,82.407 L132.43,88.227 C131.95,88.767 130.21,88.887 128.59,88.887 C122.89,88.887 115.75,85.167 115.75,75.327 C115.75,72.447 116.35,67.167 118.75,65.547 L128.29,59.127 C128.89,58.707 129.49,58.467 130.09,58.467 C132.61,58.467 137.41,61.227 139.39,62.847 L122.47,76.947 L122.47,76.947 Z M122.17,75.447 C125.77,72.507 129.49,69.387 132.61,66.387 C130.21,64.647 127.33,63.507 125.71,63.507 C124.63,63.507 124.27,63.507 123.79,64.407 C122.71,66.387 122.05,70.227 122.05,72.387 C122.05,73.047 122.05,74.787 122.17,75.447 L122.17,75.447 Z" id="Fill-15" fill="#C59E5F"></path>
                <path d="M145.93,78.267 C143.77,76.407 142.09,73.947 142.09,70.107 C142.09,68.127 142.51,66.627 143.71,65.547 C145.51,63.927 151.69,60.207 153.79,59.187 C155.17,58.527 155.59,58.467 156.55,58.467 C159.25,58.467 162.55,59.967 164.83,61.947 L158.77,67.767 C163.57,69.987 166.33,72.867 166.33,76.287 C166.33,78.927 165.13,81.387 159.97,85.107 C155.11,88.647 154.39,88.887 151.15,88.887 C148.15,88.887 143.95,87.627 139.99,83.967 L145.93,78.267 L145.93,78.267 Z M146.35,79.647 C150.07,82.287 153.73,83.487 158.35,83.487 C159.37,83.487 160.21,83.247 160.45,83.007 C160.57,82.887 160.57,82.647 160.57,82.227 C160.57,77.607 157.81,75.327 153.07,73.167 L146.35,79.647 L146.35,79.647 Z M158.71,66.147 C155.71,63.927 153.49,63.147 151.27,63.147 C150.31,63.147 149.47,63.387 148.87,63.747 C148.45,63.987 148.21,65.307 148.21,66.267 C148.21,69.567 148.87,71.067 151.33,73.227 L158.71,66.147 L158.71,66.147 Z" id="Fill-16" fill="#C59E5F"></path>
                <path d="M173.049,60.267 C173.109,55.647 173.469,54.987 174.429,54.207 C175.989,52.947 177.429,51.987 179.35,50.727 L185.289,46.827 C186.249,46.227 186.909,45.927 188.049,45.927 C189.369,45.927 191.589,46.647 192.669,47.427 L187.089,51.987 C185.77,51.207 184.27,50.667 182.829,50.667 C182.169,50.667 181.209,50.847 180.789,51.207 C180.189,51.687 179.889,53.547 179.889,56.907 L179.889,59.727 L189.069,59.727 L185.169,63.867 L179.889,63.867 L179.889,81.867 C179.889,84.147 179.889,86.247 180.189,88.527 L172.749,88.527 C173.049,86.247 173.049,84.147 173.049,81.867 L173.049,63.867 L168.609,63.867 L173.049,60.267" id="Fill-17" fill="#C59E5F"></path>
                <path d="M194.648,76.947 C196.809,82.287 201.368,83.127 204.969,83.127 C207.488,83.127 208.868,82.767 210.309,82.407 L204.608,88.227 C204.129,88.767 202.389,88.887 200.769,88.887 C195.068,88.887 187.929,85.167 187.929,75.327 C187.929,72.447 188.528,67.167 190.929,65.547 L200.469,59.127 C201.068,58.707 201.669,58.467 202.269,58.467 C204.789,58.467 209.589,61.227 211.568,62.847 L194.648,76.947 L194.648,76.947 Z M194.349,75.447 C197.948,72.507 201.669,69.387 204.789,66.387 C202.389,64.647 199.509,63.507 197.889,63.507 C196.809,63.507 196.448,63.507 195.969,64.407 C194.889,66.387 194.229,70.227 194.229,72.387 C194.229,73.047 194.229,74.787 194.349,75.447 L194.349,75.447 Z" id="Fill-18" fill="#C59E5F"></path>
                <path d="M223.208,46.466 C222.908,48.747 222.908,50.847 222.908,53.127 L222.908,76.887 C222.908,79.887 222.968,80.547 228.788,84.387 L223.628,89.187 C217.028,85.647 216.068,83.367 216.068,76.887 L216.068,53.127 C216.068,50.847 216.068,48.747 215.769,46.466 L223.208,46.466" id="Fill-19" fill="#C59E5F"></path>
                <path d="M249.128,53.127 C249.128,50.847 249.128,48.747 248.828,46.466 L256.269,46.466 C255.969,48.747 255.969,50.847 255.969,53.127 L255.969,78.987 C255.969,80.907 256.028,81.807 258.729,84.687 L252.788,89.187 C250.568,87.267 249.429,85.527 249.309,83.847 L243.309,88.587 C243.008,88.827 241.809,88.887 241.028,88.887 C236.048,88.887 230.648,84.567 230.648,75.027 C230.648,71.847 231.488,68.067 232.688,67.107 L242.648,59.127 C243.188,58.707 243.668,58.467 244.448,58.467 C245.828,58.467 247.568,58.947 249.128,59.427 L249.128,53.127 L249.128,53.127 Z M249.128,65.547 C245.168,63.687 243.608,63.507 241.208,63.507 C240.008,63.507 239.288,63.507 238.868,63.927 C237.368,65.427 236.769,70.047 236.769,72.267 C236.769,78.447 240.309,83.667 245.528,83.667 C246.969,83.667 247.988,83.307 249.128,82.827 L249.128,65.547 L249.128,65.547 Z" id="Fill-20" fill="#C59E5F"></path>
                <path d="M269.527,48.207 L269.527,61.767 C269.527,62.427 269.287,63.087 268.867,63.507 L264.667,67.407 L264.667,52.827 L269.527,48.207" id="Fill-21" fill="#C59E5F"></path>
                <path d="M280.267,78.267 C278.107,76.407 276.427,73.947 276.427,70.107 C276.427,68.127 276.847,66.627 278.047,65.547 C279.847,63.927 286.027,60.207 288.127,59.187 C289.507,58.527 289.927,58.467 290.887,58.467 C293.587,58.467 296.887,59.967 299.167,61.947 L293.107,67.767 C297.907,69.987 300.667,72.867 300.667,76.287 C300.667,78.927 299.467,81.387 294.307,85.107 C289.447,88.647 288.728,88.887 285.487,88.887 C282.487,88.887 278.287,87.627 274.327,83.967 L280.267,78.267 L280.267,78.267 Z M280.688,79.647 C284.407,82.287 288.067,83.487 292.688,83.487 C293.707,83.487 294.547,83.247 294.787,83.007 C294.907,82.887 294.907,82.647 294.907,82.227 C294.907,77.607 292.147,75.327 287.407,73.167 L280.688,79.647 L280.688,79.647 Z M293.047,66.147 C290.047,63.927 287.827,63.147 285.607,63.147 C284.647,63.147 283.807,63.387 283.207,63.747 C282.787,63.987 282.547,65.307 282.547,66.267 C282.547,69.567 283.207,71.067 285.667,73.227 L293.047,66.147 L293.047,66.147 Z" id="Fill-22" fill="#C59E5F"></path>
                <path d="M77.772,65.187 C79.572,65.907 81.252,67.647 82.032,69.687 L76.452,74.547 C75.672,72.387 73.752,70.587 72.192,70.587 L72.192,81.867 C72.192,84.147 72.192,86.247 72.492,88.527 L65.052,88.527 C65.352,86.247 65.352,84.147 65.352,81.867 L65.352,70.647 L60.132,75.147 C58.872,72.927 57.612,71.787 55.632,70.827 L61.392,65.847 C63.252,67.107 64.152,67.887 65.232,69.687 L65.352,69.687 L65.352,57.627 C65.352,54.807 60.192,53.607 55.752,53.607 C54.132,53.607 52.811,53.727 51.372,53.847 L51.372,73.167 C51.372,75.807 50.472,77.247 46.152,81.567 C50.592,81.987 52.452,82.407 56.952,84.087 L51.552,89.667 C47.412,88.047 45.012,87.687 40.271,86.907 C43.811,82.527 44.532,81.447 44.532,78.507 L44.532,60.507 C43.632,59.427 42.432,58.587 40.992,57.927 L53.532,50.727 C56.831,48.867 57.552,48.566 59.952,48.566 C66.552,48.566 71.172,50.667 72.012,54.507 L76.392,51.447 C79.392,49.347 80.952,48.566 83.292,48.566 C89.952,48.566 95.652,54.387 95.652,64.467 C95.652,71.487 93.012,77.127 86.352,82.287 L86.352,82.407 L93.072,82.407 C94.872,82.407 96.012,82.227 97.152,81.807 L92.892,87.687 C92.412,88.347 91.752,88.527 89.652,88.527 L79.812,88.527 C86.892,80.847 88.632,75.807 88.632,66.987 C88.632,59.907 85.992,53.967 78.792,53.967 C76.632,53.967 74.472,54.687 72.192,55.767 L72.192,69.687 L77.772,65.187" id="Fill-23" fill="#D9BC8A"></path>
                <path d="M105.671,57.927 C108.731,59.847 109.631,60.867 109.631,63.267 L109.631,78.567 C109.631,81.447 110.111,82.227 112.511,84.687 L106.331,89.187 C104.051,86.967 102.791,85.047 102.791,82.887 L102.791,67.167 C102.791,65.427 102.611,64.647 99.671,62.847 L105.671,57.927 L105.671,57.927 Z M105.911,49.527 L113.771,46.466 L109.031,52.407 L101.051,55.467 L105.911,49.527 L105.911,49.527 Z" id="Fill-24" fill="#D9BC8A"></path>
                <path d="M122.47,76.947 C124.63,82.287 129.19,83.127 132.79,83.127 C135.31,83.127 136.69,82.767 138.13,82.407 L132.43,88.227 C131.95,88.767 130.21,88.887 128.59,88.887 C122.89,88.887 115.75,85.167 115.75,75.327 C115.75,72.447 116.35,67.167 118.75,65.547 L128.29,59.127 C128.89,58.707 129.49,58.467 130.09,58.467 C132.61,58.467 137.41,61.227 139.39,62.847 L122.47,76.947 L122.47,76.947 Z M122.17,75.447 C125.77,72.507 129.49,69.387 132.61,66.387 C130.21,64.647 127.33,63.507 125.71,63.507 C124.63,63.507 124.27,63.507 123.79,64.407 C122.71,66.387 122.05,70.227 122.05,72.387 C122.05,73.047 122.05,74.787 122.17,75.447 L122.17,75.447 Z" id="Fill-25" fill="#D9BC8A"></path>
                <path d="M145.93,78.267 C143.77,76.407 142.09,73.947 142.09,70.107 C142.09,68.127 142.51,66.627 143.71,65.547 C145.51,63.927 151.69,60.207 153.79,59.187 C155.17,58.527 155.59,58.467 156.55,58.467 C159.25,58.467 162.55,59.967 164.83,61.947 L158.77,67.767 C163.57,69.987 166.33,72.867 166.33,76.287 C166.33,78.927 165.13,81.387 159.97,85.107 C155.11,88.647 154.39,88.887 151.15,88.887 C148.15,88.887 143.95,87.627 139.99,83.967 L145.93,78.267 L145.93,78.267 Z M146.35,79.647 C150.07,82.287 153.73,83.487 158.35,83.487 C159.37,83.487 160.21,83.247 160.45,83.007 C160.57,82.887 160.57,82.647 160.57,82.227 C160.57,77.607 157.81,75.327 153.07,73.167 L146.35,79.647 L146.35,79.647 Z M158.71,66.147 C155.71,63.927 153.49,63.147 151.27,63.147 C150.31,63.147 149.47,63.387 148.87,63.747 C148.45,63.987 148.21,65.307 148.21,66.267 C148.21,69.567 148.87,71.067 151.33,73.227 L158.71,66.147 L158.71,66.147 Z" id="Fill-26" fill="#D9BC8A"></path>
                <path d="M173.049,60.267 C173.109,55.647 173.469,54.987 174.429,54.207 C175.989,52.947 177.429,51.987 179.35,50.727 L185.289,46.827 C186.249,46.227 186.909,45.927 188.049,45.927 C189.369,45.927 191.589,46.647 192.669,47.427 L187.089,51.987 C185.77,51.207 184.27,50.667 182.829,50.667 C182.169,50.667 181.209,50.847 180.789,51.207 C180.189,51.687 179.889,53.547 179.889,56.907 L179.889,59.727 L189.069,59.727 L185.169,63.867 L179.889,63.867 L179.889,81.867 C179.889,84.147 179.889,86.247 180.189,88.527 L172.749,88.527 C173.049,86.247 173.049,84.147 173.049,81.867 L173.049,63.867 L168.609,63.867 L173.049,60.267" id="Fill-27" fill="#D9BC8A"></path>
                <path d="M194.648,76.947 C196.809,82.287 201.368,83.127 204.969,83.127 C207.488,83.127 208.868,82.767 210.309,82.407 L204.608,88.227 C204.129,88.767 202.389,88.887 200.769,88.887 C195.068,88.887 187.929,85.167 187.929,75.327 C187.929,72.447 188.528,67.167 190.929,65.547 L200.469,59.127 C201.068,58.707 201.669,58.467 202.269,58.467 C204.789,58.467 209.589,61.227 211.568,62.847 L194.648,76.947 L194.648,76.947 Z M194.349,75.447 C197.948,72.507 201.669,69.387 204.789,66.387 C202.389,64.647 199.509,63.507 197.889,63.507 C196.809,63.507 196.448,63.507 195.969,64.407 C194.889,66.387 194.229,70.227 194.229,72.387 C194.229,73.047 194.229,74.787 194.349,75.447 L194.349,75.447 Z" id="Fill-28" fill="#D9BC8A"></path>
                <path d="M223.208,46.466 C222.908,48.747 222.908,50.847 222.908,53.127 L222.908,76.887 C222.908,79.887 222.968,80.547 228.788,84.387 L223.628,89.187 C217.028,85.647 216.068,83.367 216.068,76.887 L216.068,53.127 C216.068,50.847 216.068,48.747 215.769,46.466 L223.208,46.466" id="Fill-29" fill="#D9BC8A"></path>
                <path d="M249.128,53.127 C249.128,50.847 249.128,48.747 248.828,46.466 L256.269,46.466 C255.969,48.747 255.969,50.847 255.969,53.127 L255.969,78.987 C255.969,80.907 256.028,81.807 258.729,84.687 L252.788,89.187 C250.568,87.267 249.429,85.527 249.309,83.847 L243.309,88.587 C243.008,88.827 241.809,88.887 241.028,88.887 C236.048,88.887 230.648,84.567 230.648,75.027 C230.648,71.847 231.488,68.067 232.688,67.107 L242.648,59.127 C243.188,58.707 243.668,58.467 244.448,58.467 C245.828,58.467 247.568,58.947 249.128,59.427 L249.128,53.127 L249.128,53.127 Z M249.128,65.547 C245.168,63.687 243.608,63.507 241.208,63.507 C240.008,63.507 239.288,63.507 238.868,63.927 C237.368,65.427 236.769,70.047 236.769,72.267 C236.769,78.447 240.309,83.667 245.528,83.667 C246.969,83.667 247.988,83.307 249.128,82.827 L249.128,65.547 L249.128,65.547 Z" id="Fill-30" fill="#D9BC8A"></path>
                <path d="M269.527,48.207 L269.527,61.767 C269.527,62.427 269.287,63.087 268.867,63.507 L264.667,67.407 L264.667,52.827 L269.527,48.207" id="Fill-31" fill="#D9BC8A"></path>
                <path d="M280.267,78.267 C278.107,76.407 276.427,73.947 276.427,70.107 C276.427,68.127 276.847,66.627 278.047,65.547 C279.847,63.927 286.027,60.207 288.127,59.187 C289.507,58.527 289.927,58.467 290.887,58.467 C293.587,58.467 296.887,59.967 299.167,61.947 L293.107,67.767 C297.907,69.987 300.667,72.867 300.667,76.287 C300.667,78.927 299.467,81.387 294.307,85.107 C289.447,88.647 288.728,88.887 285.487,88.887 C282.487,88.887 278.287,87.627 274.327,83.967 L280.267,78.267 L280.267,78.267 Z M280.688,79.647 C284.407,82.287 288.067,83.487 292.688,83.487 C293.707,83.487 294.547,83.247 294.787,83.007 C294.907,82.887 294.907,82.647 294.907,82.227 C294.907,77.607 292.147,75.327 287.407,73.167 L280.688,79.647 L280.688,79.647 Z M293.047,66.147 C290.047,63.927 287.827,63.147 285.607,63.147 C284.647,63.147 283.807,63.387 283.207,63.747 C282.787,63.987 282.547,65.307 282.547,66.267 C282.547,69.567 283.207,71.067 285.667,73.227 L293.047,66.147 L293.047,66.147 Z" id="Fill-32" fill="#D9BC8A"></path>
                <path d="M329.775,40.266 L329.775,95.113 L8.573,95.113 L8.573,98.113 L332.775,98.113 L332.775,40.266 L329.775,40.266" id="Fill-33" fill="#E3CBA2"></path>
                <path d="M1.505,31.751 L0.005,31.751 L0.005,103.522 L3.005,106.546 L3.005,34.751 L338.043,34.751 L338.043,31.751 L1.505,31.751" id="Fill-34" fill="#E3CBA2"></path>
                <path d="M337.925,31.8 L337.925,103.541 L0,103.541 L2.443,106.541 L341.069,106.757 L340.925,33.882 L337.925,31.8" id="Fill-35" fill="#752119"></path>
                <path d="M136.234,120.596 C136.883,122.198 138.25,122.45 139.331,122.45 C140.086,122.45 140.5,122.342 140.933,122.234 L139.223,123.98 C139.079,124.142 138.557,124.178 138.071,124.178 C136.36,124.178 134.219,123.062 134.219,120.11 C134.219,119.246 134.398,117.662 135.119,117.175 L137.98,115.25 C138.161,115.124 138.341,115.051 138.521,115.051 C139.276,115.051 140.717,115.88 141.311,116.366 L136.234,120.596 L136.234,120.596 Z M136.145,120.146 C137.225,119.264 138.341,118.328 139.276,117.428 C138.557,116.906 137.692,116.564 137.207,116.564 C136.883,116.564 136.774,116.564 136.63,116.834 C136.307,117.428 136.108,118.58 136.108,119.228 C136.108,119.426 136.108,119.948 136.145,120.146 L136.145,120.146 Z" id="Fill-36" fill="#752119"></path>
                <path d="M143.723,120.992 C143.075,120.434 142.57,119.696 142.57,118.544 C142.57,117.95 142.696,117.5 143.057,117.175 C143.597,116.69 145.451,115.574 146.081,115.268 C146.495,115.07 146.621,115.051 146.909,115.051 C147.719,115.051 148.708,115.502 149.393,116.096 L147.575,117.841 C149.015,118.507 149.843,119.372 149.843,120.398 C149.843,121.19 149.482,121.928 147.935,123.044 C146.477,124.106 146.261,124.178 145.289,124.178 C144.389,124.178 143.128,123.8 141.94,122.702 L143.723,120.992 L143.723,120.992 Z M143.849,121.406 C144.964,122.198 146.062,122.558 147.449,122.558 C147.754,122.558 148.006,122.486 148.079,122.414 C148.115,122.378 148.115,122.306 148.115,122.18 C148.115,120.794 147.287,120.11 145.864,119.462 L143.849,121.406 L143.849,121.406 Z M147.557,117.356 C146.657,116.69 145.991,116.456 145.325,116.456 C145.037,116.456 144.785,116.528 144.604,116.636 C144.479,116.708 144.406,117.104 144.406,117.392 C144.406,118.381 144.604,118.832 145.342,119.48 L147.557,117.356 L147.557,117.356 Z" id="Fill-37" fill="#752119"></path>
                <path d="M152.308,114.007 L154.36,112.874 L154.36,115.43 L156.592,115.43 L155.44,116.672 L154.36,116.672 L154.36,120.47 C154.36,121.28 154.36,121.352 155.782,122.864 L154,124.268 C152.362,122.432 152.308,122.27 152.308,121.406 L152.308,116.672 L150.976,116.672 L152.308,115.591 L152.308,114.007" id="Fill-38" fill="#752119"></path>
                <polyline id="Fill-39" fill="#752119" points="158.302 120.631 159.706 122.306 158.302 124.268 156.934 122.45 158.302 120.631"></polyline>
                <path d="M166.726,114.259 C168.004,113.81 169.138,113.414 170.254,112.874 L170.254,122.072 C170.254,122.756 170.254,123.386 170.344,124.07 L168.112,124.07 C168.202,123.386 168.202,122.756 168.202,122.072 L168.202,114.799 L166.006,115.051 L166.726,114.259" id="Fill-40" fill="#752119"></path>
                <path d="M175.132,124.07 C176.662,121.982 177.454,120.757 178.588,118.796 L178.552,118.76 L176.302,120.146 C173.926,120.146 172.972,118.742 172.972,117.23 C172.972,116.006 173.529,115.214 174.502,114.584 C175.546,113.918 177.237,112.874 177.67,112.874 C178.12,112.874 179.29,113.414 179.812,113.954 C180.55,114.728 180.838,115.43 180.838,116.51 C180.838,117.841 180.334,119.066 176.806,124.07 L175.132,124.07 L175.132,124.07 Z M175.834,114.278 C175.258,114.278 174.97,115.43 174.97,116.24 C174.97,117.374 175.618,118.633 177.364,118.633 C177.922,118.633 178.246,118.526 178.695,118.381 C178.768,118.13 178.84,117.824 178.84,117.446 C178.84,114.962 176.248,114.278 175.834,114.278 L175.834,114.278 Z" id="Fill-41" fill="#752119"></path>
                <path d="M188.434,112.874 L188.434,120.452 L190.018,120.452 L188.434,122.018 L188.434,122.072 C188.434,122.756 188.434,123.386 188.523,124.07 L186.346,124.07 C186.436,123.386 186.436,122.756 186.436,122.072 L186.436,122.018 L181.666,122.018 C183.628,118.994 185.859,115.214 186.472,113.522 L188.434,112.874 L188.434,112.874 Z M186.436,117.482 C186.436,116.798 186.454,115.934 186.508,115.591 L186.472,115.556 L183.502,120.452 L186.436,120.452 L186.436,117.482 L186.436,117.482 Z" id="Fill-42" fill="#752119"></path>
                <path d="M191.403,114.259 C192.682,113.81 193.815,113.414 194.932,112.874 L194.932,122.072 C194.932,122.756 194.932,123.386 195.021,124.07 L192.79,124.07 C192.88,123.386 192.88,122.756 192.88,122.072 L192.88,114.799 L190.684,115.051 L191.403,114.259" id="Fill-43" fill="#752119"></path>
                <path d="M136.234,120.596 C136.883,122.198 138.25,122.45 139.331,122.45 C140.086,122.45 140.5,122.342 140.933,122.234 L139.223,123.98 C139.079,124.142 138.557,124.178 138.071,124.178 C136.36,124.178 134.219,123.062 134.219,120.11 C134.219,119.246 134.398,117.662 135.119,117.175 L137.98,115.25 C138.161,115.124 138.341,115.051 138.521,115.051 C139.276,115.051 140.717,115.88 141.311,116.366 L136.234,120.596 L136.234,120.596 Z M136.145,120.146 C137.225,119.264 138.341,118.328 139.276,117.428 C138.557,116.906 137.692,116.564 137.207,116.564 C136.883,116.564 136.774,116.564 136.63,116.834 C136.307,117.428 136.108,118.58 136.108,119.228 C136.108,119.426 136.108,119.948 136.145,120.146 L136.145,120.146 Z" id="Fill-44" fill="#8C3E2A"></path>
                <path d="M143.723,120.992 C143.075,120.434 142.57,119.696 142.57,118.544 C142.57,117.95 142.696,117.5 143.057,117.175 C143.597,116.69 145.451,115.574 146.081,115.268 C146.495,115.07 146.621,115.051 146.909,115.051 C147.719,115.051 148.708,115.502 149.393,116.096 L147.575,117.841 C149.015,118.507 149.843,119.372 149.843,120.398 C149.843,121.19 149.482,121.928 147.935,123.044 C146.477,124.106 146.261,124.178 145.289,124.178 C144.389,124.178 143.128,123.8 141.94,122.702 L143.723,120.992 L143.723,120.992 Z M143.849,121.406 C144.964,122.198 146.062,122.558 147.449,122.558 C147.754,122.558 148.006,122.486 148.079,122.414 C148.115,122.378 148.115,122.306 148.115,122.18 C148.115,120.794 147.287,120.11 145.864,119.462 L143.849,121.406 L143.849,121.406 Z M147.557,117.356 C146.657,116.69 145.991,116.456 145.325,116.456 C145.037,116.456 144.785,116.528 144.604,116.636 C144.479,116.708 144.406,117.104 144.406,117.392 C144.406,118.381 144.604,118.832 145.342,119.48 L147.557,117.356 L147.557,117.356 Z" id="Fill-45" fill="#8C3E2A"></path>
                <path d="M152.308,114.007 L154.36,112.874 L154.36,115.43 L156.592,115.43 L155.44,116.672 L154.36,116.672 L154.36,120.47 C154.36,121.28 154.36,121.352 155.782,122.864 L154,124.268 C152.362,122.432 152.308,122.27 152.308,121.406 L152.308,116.672 L150.976,116.672 L152.308,115.591 L152.308,114.007" id="Fill-46" fill="#8C3E2A"></path>
                <polyline id="Fill-47" fill="#8C3E2A" points="158.302 120.631 159.706 122.306 158.302 124.268 156.934 122.45 158.302 120.631"></polyline>
                <path d="M166.726,114.259 C168.004,113.81 169.138,113.414 170.254,112.874 L170.254,122.072 C170.254,122.756 170.254,123.386 170.344,124.07 L168.112,124.07 C168.202,123.386 168.202,122.756 168.202,122.072 L168.202,114.799 L166.006,115.051 L166.726,114.259" id="Fill-48" fill="#8C3E2A"></path>
                <path d="M175.132,124.07 C176.662,121.982 177.454,120.757 178.588,118.796 L178.552,118.76 L176.302,120.146 C173.926,120.146 172.972,118.742 172.972,117.23 C172.972,116.006 173.529,115.214 174.502,114.584 C175.546,113.918 177.237,112.874 177.67,112.874 C178.12,112.874 179.29,113.414 179.812,113.954 C180.55,114.728 180.838,115.43 180.838,116.51 C180.838,117.841 180.334,119.066 176.806,124.07 L175.132,124.07 L175.132,124.07 Z M175.834,114.278 C175.258,114.278 174.97,115.43 174.97,116.24 C174.97,117.374 175.618,118.633 177.364,118.633 C177.922,118.633 178.246,118.526 178.695,118.381 C178.768,118.13 178.84,117.824 178.84,117.446 C178.84,114.962 176.248,114.278 175.834,114.278 L175.834,114.278 Z" id="Fill-49" fill="#8C3E2A"></path>
                <path d="M188.434,112.874 L188.434,120.452 L190.018,120.452 L188.434,122.018 L188.434,122.072 C188.434,122.756 188.434,123.386 188.523,124.07 L186.346,124.07 C186.436,123.386 186.436,122.756 186.436,122.072 L186.436,122.018 L181.666,122.018 C183.628,118.994 185.859,115.214 186.472,113.522 L188.434,112.874 L188.434,112.874 Z M186.436,117.482 C186.436,116.798 186.454,115.934 186.508,115.591 L186.472,115.556 L183.502,120.452 L186.436,120.452 L186.436,117.482 L186.436,117.482 Z" id="Fill-50" fill="#8C3E2A"></path>
                <path d="M191.403,114.259 C192.682,113.81 193.815,113.414 194.932,112.874 L194.932,122.072 C194.932,122.756 194.932,123.386 195.021,124.07 L192.79,124.07 C192.88,123.386 192.88,122.756 192.88,122.072 L192.88,114.799 L190.684,115.051 L191.403,114.259" id="Fill-51" fill="#8C3E2A"></path>
                <path d="M10.071,40.289 L8.571,40.289 L8.571,95.097 L11.571,95.097 L11.571,43.289 L329.755,43.289 L329.755,40.289 L10.071,40.289" id="Fill-52" fill="#752119"></path>
            </g>
        </g>
    </g>
</svg>