<?xml version="1.0" encoding="UTF-8" standalone="no"?>
<svg width="337px" height="210px" viewBox="0 0 337 210" version="1.1" xmlns="http://www.w3.org/2000/svg" xmlns:xlink="http://www.w3.org/1999/xlink">
    <!-- Generator: Sketch 3.8.3 (29802) - http://www.bohemiancoding.com/sketch -->
    <title>Miesfeld logo_cmyk</title>
    <desc>Created with Sketch.</desc>
    <defs></defs>
    <g id="Page-1" stroke="none" stroke-width="1" fill="none" fill-rule="evenodd">
        <g id="Miesfeld-logo_cmyk" transform="translate(3.000000, 0.000000)">
            <polygon id="Stroke-2" stroke="#FFFFFF" stroke-width="6" points="160.324 200.318 42.364 6.519 278.532 6.519"></polygon>
            <path d="M33.886,3.14 L158.667,208.468 L161.231,206.912 C161.231,206.912 40.543,8.32 37.835,3.862 C43.056,3.863 285.907,3.933 285.907,3.933 L285.04,0.933 L32.501,0.86 L33.886,3.14" id="Fill-4" fill="#FFFFFF"></path>
            <g id="Group-8" transform="translate(47.000000, 0.000000)" fill="#FFFFFF">
                <path d="M3.064,9.184 L0.395,9.184 L111.805,192.155 L114.237,190.432 C114.237,190.432 8.44,16.631 5.733,12.184 L224.733,12.184 L224.733,9.184 L3.064,9.184" id="Fill-5"></path>
                <polyline id="Fill-7" points="111.645 208.439 114.208 210 240.581 2.476 238.019 0.916 111.645 208.439"></polyline>
            </g>
            <polygon id="Fill-9" fill="#FFFFFF" points="160.509 194.753 273.662 9.196 270.175 9.175 158.713 192.01"></polygon>
            <polygon id="Fill-10" fill="#222222" points="0.796 100.904 330.207 100.904 330.207 37.375 0.796 37.375"></polygon>
            <polygon id="Stroke-11" stroke="#FFFFFF" stroke-width="6" points="0.796 100.904 330.207 100.904 330.207 37.375 0.796 37.375"></polygon>
            <path d="M72.772,65.187 C74.572,65.907 76.252,67.647 77.032,69.687 L71.452,74.547 C70.672,72.387 68.752,70.587 67.192,70.587 L67.192,81.867 C67.192,84.147 67.192,86.247 67.492,88.527 L60.052,88.527 C60.352,86.247 60.352,84.147 60.352,81.867 L60.352,70.647 L55.132,75.147 C53.872,72.927 52.612,71.787 50.632,70.827 L56.392,65.847 C58.252,67.107 59.152,67.887 60.232,69.687 L60.352,69.687 L60.352,57.627 C60.352,54.807 55.192,53.607 50.752,53.607 C49.132,53.607 47.811,53.727 46.372,53.847 L46.372,73.167 C46.372,75.807 45.472,77.247 41.152,81.567 C45.592,81.987 47.452,82.407 51.952,84.087 L46.552,89.667 C42.412,88.047 40.012,87.687 35.271,86.907 C38.811,82.527 39.532,81.447 39.532,78.507 L39.532,60.507 C38.632,59.427 37.432,58.587 35.992,57.927 L48.532,50.727 C51.831,48.867 52.552,48.566 54.952,48.566 C61.552,48.566 66.172,50.667 67.012,54.507 L71.392,51.447 C74.392,49.347 75.952,48.566 78.292,48.566 C84.952,48.566 90.652,54.387 90.652,64.467 C90.652,71.487 88.012,77.127 81.352,82.287 L81.352,82.407 L88.072,82.407 C89.872,82.407 91.012,82.227 92.152,81.807 L87.892,87.687 C87.412,88.347 86.752,88.527 84.652,88.527 L74.812,88.527 C81.892,80.847 83.632,75.807 83.632,66.987 C83.632,59.907 80.992,53.967 73.792,53.967 C71.632,53.967 69.472,54.687 67.192,55.767 L67.192,69.687 L72.772,65.187" id="Fill-13" fill="#FFFFFF"></path>
            <path d="M100.671,57.927 C103.731,59.847 104.631,60.867 104.631,63.267 L104.631,78.567 C104.631,81.447 105.111,82.227 107.511,84.687 L101.331,89.187 C99.051,86.967 97.791,85.047 97.791,82.887 L97.791,67.167 C97.791,65.427 97.611,64.647 94.671,62.847 L100.671,57.927 L100.671,57.927 Z M100.911,49.527 L108.771,46.466 L104.031,52.407 L96.051,55.467 L100.911,49.527 L100.911,49.527 Z" id="Fill-14" fill="#FFFFFF"></path>
            <path d="M117.47,76.947 C119.63,82.287 124.19,83.127 127.79,83.127 C130.31,83.127 131.69,82.767 133.13,82.407 L127.43,88.227 C126.95,88.767 125.21,88.887 123.59,88.887 C117.89,88.887 110.75,85.167 110.75,75.327 C110.75,72.447 111.35,67.167 113.75,65.547 L123.29,59.127 C123.89,58.707 124.49,58.467 125.09,58.467 C127.61,58.467 132.41,61.227 134.39,62.847 L117.47,76.947 L117.47,76.947 Z M117.17,75.447 C120.77,72.507 124.49,69.387 127.61,66.387 C125.21,64.647 122.33,63.507 120.71,63.507 C119.63,63.507 119.27,63.507 118.79,64.407 C117.71,66.387 117.05,70.227 117.05,72.387 C117.05,73.047 117.05,74.787 117.17,75.447 L117.17,75.447 Z" id="Fill-15" fill="#FFFFFF"></path>
            <path d="M140.93,78.267 C138.77,76.407 137.09,73.947 137.09,70.107 C137.09,68.127 137.51,66.627 138.71,65.547 C140.51,63.927 146.69,60.207 148.79,59.187 C150.17,58.527 150.59,58.467 151.55,58.467 C154.25,58.467 157.55,59.967 159.83,61.947 L153.77,67.767 C158.57,69.987 161.33,72.867 161.33,76.287 C161.33,78.927 160.13,81.387 154.97,85.107 C150.11,88.647 149.39,88.887 146.15,88.887 C143.15,88.887 138.95,87.627 134.99,83.967 L140.93,78.267 L140.93,78.267 Z M141.35,79.647 C145.07,82.287 148.73,83.487 153.35,83.487 C154.37,83.487 155.21,83.247 155.45,83.007 C155.57,82.887 155.57,82.647 155.57,82.227 C155.57,77.607 152.81,75.327 148.07,73.167 L141.35,79.647 L141.35,79.647 Z M153.71,66.147 C150.71,63.927 148.49,63.147 146.27,63.147 C145.31,63.147 144.47,63.387 143.87,63.747 C143.45,63.987 143.21,65.307 143.21,66.267 C143.21,69.567 143.87,71.067 146.33,73.227 L153.71,66.147 L153.71,66.147 Z" id="Fill-16" fill="#FFFFFF"></path>
            <path d="M168.049,60.267 C168.109,55.647 168.469,54.987 169.429,54.207 C170.989,52.947 172.429,51.987 174.35,50.727 L180.289,46.827 C181.249,46.227 181.909,45.927 183.049,45.927 C184.369,45.927 186.589,46.647 187.669,47.427 L182.089,51.987 C180.77,51.207 179.27,50.667 177.829,50.667 C177.169,50.667 176.209,50.847 175.789,51.207 C175.189,51.687 174.889,53.547 174.889,56.907 L174.889,59.727 L184.069,59.727 L180.169,63.867 L174.889,63.867 L174.889,81.867 C174.889,84.147 174.889,86.247 175.189,88.527 L167.749,88.527 C168.049,86.247 168.049,84.147 168.049,81.867 L168.049,63.867 L163.609,63.867 L168.049,60.267" id="Fill-17" fill="#FFFFFF"></path>
            <path d="M189.648,76.947 C191.809,82.287 196.368,83.127 199.969,83.127 C202.488,83.127 203.868,82.767 205.309,82.407 L199.608,88.227 C199.129,88.767 197.389,88.887 195.769,88.887 C190.068,88.887 182.929,85.167 182.929,75.327 C182.929,72.447 183.528,67.167 185.929,65.547 L195.469,59.127 C196.068,58.707 196.669,58.467 197.269,58.467 C199.789,58.467 204.589,61.227 206.568,62.847 L189.648,76.947 L189.648,76.947 Z M189.349,75.447 C192.948,72.507 196.669,69.387 199.789,66.387 C197.389,64.647 194.509,63.507 192.889,63.507 C191.809,63.507 191.448,63.507 190.969,64.407 C189.889,66.387 189.229,70.227 189.229,72.387 C189.229,73.047 189.229,74.787 189.349,75.447 L189.349,75.447 Z" id="Fill-18" fill="#FFFFFF"></path>
            <path d="M218.208,46.466 C217.908,48.747 217.908,50.847 217.908,53.127 L217.908,76.887 C217.908,79.887 217.968,80.547 223.788,84.387 L218.628,89.187 C212.028,85.647 211.068,83.367 211.068,76.887 L211.068,53.127 C211.068,50.847 211.068,48.747 210.769,46.466 L218.208,46.466" id="Fill-19" fill="#FFFFFF"></path>
            <path d="M244.128,53.127 C244.128,50.847 244.128,48.747 243.828,46.466 L251.269,46.466 C250.969,48.747 250.969,50.847 250.969,53.127 L250.969,78.987 C250.969,80.907 251.028,81.807 253.729,84.687 L247.788,89.187 C245.568,87.267 244.429,85.527 244.309,83.847 L238.309,88.587 C238.008,88.827 236.809,88.887 236.028,88.887 C231.048,88.887 225.648,84.567 225.648,75.027 C225.648,71.847 226.488,68.067 227.688,67.107 L237.648,59.127 C238.188,58.707 238.668,58.467 239.448,58.467 C240.828,58.467 242.568,58.947 244.128,59.427 L244.128,53.127 L244.128,53.127 Z M244.128,65.547 C240.168,63.687 238.608,63.507 236.208,63.507 C235.008,63.507 234.288,63.507 233.868,63.927 C232.368,65.427 231.769,70.047 231.769,72.267 C231.769,78.447 235.309,83.667 240.528,83.667 C241.969,83.667 242.988,83.307 244.128,82.827 L244.128,65.547 L244.128,65.547 Z" id="Fill-20" fill="#FFFFFF"></path>
            <path d="M264.527,48.207 L264.527,61.767 C264.527,62.427 264.287,63.087 263.867,63.507 L259.667,67.407 L259.667,52.827 L264.527,48.207" id="Fill-21" fill="#FFFFFF"></path>
            <path d="M275.267,78.267 C273.107,76.407 271.427,73.947 271.427,70.107 C271.427,68.127 271.847,66.627 273.047,65.547 C274.847,63.927 281.027,60.207 283.127,59.187 C284.507,58.527 284.927,58.467 285.887,58.467 C288.587,58.467 291.887,59.967 294.167,61.947 L288.107,67.767 C292.907,69.987 295.667,72.867 295.667,76.287 C295.667,78.927 294.467,81.387 289.307,85.107 C284.447,88.647 283.728,88.887 280.487,88.887 C277.487,88.887 273.287,87.627 269.327,83.967 L275.267,78.267 L275.267,78.267 Z M275.688,79.647 C279.407,82.287 283.067,83.487 287.688,83.487 C288.707,83.487 289.547,83.247 289.787,83.007 C289.907,82.887 289.907,82.647 289.907,82.227 C289.907,77.607 287.147,75.327 282.407,73.167 L275.688,79.647 L275.688,79.647 Z M288.047,66.147 C285.047,63.927 282.827,63.147 280.607,63.147 C279.647,63.147 278.807,63.387 278.207,63.747 C277.787,63.987 277.547,65.307 277.547,66.267 C277.547,69.567 278.207,71.067 280.667,73.227 L288.047,66.147 L288.047,66.147 Z" id="Fill-22" fill="#FFFFFF"></path>
            <path d="M72.772,65.187 C74.572,65.907 76.252,67.647 77.032,69.687 L71.452,74.547 C70.672,72.387 68.752,70.587 67.192,70.587 L67.192,81.867 C67.192,84.147 67.192,86.247 67.492,88.527 L60.052,88.527 C60.352,86.247 60.352,84.147 60.352,81.867 L60.352,70.647 L55.132,75.147 C53.872,72.927 52.612,71.787 50.632,70.827 L56.392,65.847 C58.252,67.107 59.152,67.887 60.232,69.687 L60.352,69.687 L60.352,57.627 C60.352,54.807 55.192,53.607 50.752,53.607 C49.132,53.607 47.811,53.727 46.372,53.847 L46.372,73.167 C46.372,75.807 45.472,77.247 41.152,81.567 C45.592,81.987 47.452,82.407 51.952,84.087 L46.552,89.667 C42.412,88.047 40.012,87.687 35.271,86.907 C38.811,82.527 39.532,81.447 39.532,78.507 L39.532,60.507 C38.632,59.427 37.432,58.587 35.992,57.927 L48.532,50.727 C51.831,48.867 52.552,48.566 54.952,48.566 C61.552,48.566 66.172,50.667 67.012,54.507 L71.392,51.447 C74.392,49.347 75.952,48.566 78.292,48.566 C84.952,48.566 90.652,54.387 90.652,64.467 C90.652,71.487 88.012,77.127 81.352,82.287 L81.352,82.407 L88.072,82.407 C89.872,82.407 91.012,82.227 92.152,81.807 L87.892,87.687 C87.412,88.347 86.752,88.527 84.652,88.527 L74.812,88.527 C81.892,80.847 83.632,75.807 83.632,66.987 C83.632,59.907 80.992,53.967 73.792,53.967 C71.632,53.967 69.472,54.687 67.192,55.767 L67.192,69.687 L72.772,65.187" id="Fill-23" fill="#FFFFFF"></path>
            <path d="M100.671,57.927 C103.731,59.847 104.631,60.867 104.631,63.267 L104.631,78.567 C104.631,81.447 105.111,82.227 107.511,84.687 L101.331,89.187 C99.051,86.967 97.791,85.047 97.791,82.887 L97.791,67.167 C97.791,65.427 97.611,64.647 94.671,62.847 L100.671,57.927 L100.671,57.927 Z M100.911,49.527 L108.771,46.466 L104.031,52.407 L96.051,55.467 L100.911,49.527 L100.911,49.527 Z" id="Fill-24" fill="#FFFFFF"></path>
            <path d="M117.47,76.947 C119.63,82.287 124.19,83.127 127.79,83.127 C130.31,83.127 131.69,82.767 133.13,82.407 L127.43,88.227 C126.95,88.767 125.21,88.887 123.59,88.887 C117.89,88.887 110.75,85.167 110.75,75.327 C110.75,72.447 111.35,67.167 113.75,65.547 L123.29,59.127 C123.89,58.707 124.49,58.467 125.09,58.467 C127.61,58.467 132.41,61.227 134.39,62.847 L117.47,76.947 L117.47,76.947 Z M117.17,75.447 C120.77,72.507 124.49,69.387 127.61,66.387 C125.21,64.647 122.33,63.507 120.71,63.507 C119.63,63.507 119.27,63.507 118.79,64.407 C117.71,66.387 117.05,70.227 117.05,72.387 C117.05,73.047 117.05,74.787 117.17,75.447 L117.17,75.447 Z" id="Fill-25" fill="#FFFFFF"></path>
            <path d="M140.93,78.267 C138.77,76.407 137.09,73.947 137.09,70.107 C137.09,68.127 137.51,66.627 138.71,65.547 C140.51,63.927 146.69,60.207 148.79,59.187 C150.17,58.527 150.59,58.467 151.55,58.467 C154.25,58.467 157.55,59.967 159.83,61.947 L153.77,67.767 C158.57,69.987 161.33,72.867 161.33,76.287 C161.33,78.927 160.13,81.387 154.97,85.107 C150.11,88.647 149.39,88.887 146.15,88.887 C143.15,88.887 138.95,87.627 134.99,83.967 L140.93,78.267 L140.93,78.267 Z M141.35,79.647 C145.07,82.287 148.73,83.487 153.35,83.487 C154.37,83.487 155.21,83.247 155.45,83.007 C155.57,82.887 155.57,82.647 155.57,82.227 C155.57,77.607 152.81,75.327 148.07,73.167 L141.35,79.647 L141.35,79.647 Z M153.71,66.147 C150.71,63.927 148.49,63.147 146.27,63.147 C145.31,63.147 144.47,63.387 143.87,63.747 C143.45,63.987 143.21,65.307 143.21,66.267 C143.21,69.567 143.87,71.067 146.33,73.227 L153.71,66.147 L153.71,66.147 Z" id="Fill-26" fill="#FFFFFF"></path>
            <path d="M168.049,60.267 C168.109,55.647 168.469,54.987 169.429,54.207 C170.989,52.947 172.429,51.987 174.35,50.727 L180.289,46.827 C181.249,46.227 181.909,45.927 183.049,45.927 C184.369,45.927 186.589,46.647 187.669,47.427 L182.089,51.987 C180.77,51.207 179.27,50.667 177.829,50.667 C177.169,50.667 176.209,50.847 175.789,51.207 C175.189,51.687 174.889,53.547 174.889,56.907 L174.889,59.727 L184.069,59.727 L180.169,63.867 L174.889,63.867 L174.889,81.867 C174.889,84.147 174.889,86.247 175.189,88.527 L167.749,88.527 C168.049,86.247 168.049,84.147 168.049,81.867 L168.049,63.867 L163.609,63.867 L168.049,60.267" id="Fill-27" fill="#FFFFFF"></path>
            <path d="M189.648,76.947 C191.809,82.287 196.368,83.127 199.969,83.127 C202.488,83.127 203.868,82.767 205.309,82.407 L199.608,88.227 C199.129,88.767 197.389,88.887 195.769,88.887 C190.068,88.887 182.929,85.167 182.929,75.327 C182.929,72.447 183.528,67.167 185.929,65.547 L195.469,59.127 C196.068,58.707 196.669,58.467 197.269,58.467 C199.789,58.467 204.589,61.227 206.568,62.847 L189.648,76.947 L189.648,76.947 Z M189.349,75.447 C192.948,72.507 196.669,69.387 199.789,66.387 C197.389,64.647 194.509,63.507 192.889,63.507 C191.809,63.507 191.448,63.507 190.969,64.407 C189.889,66.387 189.229,70.227 189.229,72.387 C189.229,73.047 189.229,74.787 189.349,75.447 L189.349,75.447 Z" id="Fill-28" fill="#FFFFFF"></path>
            <path d="M218.208,46.466 C217.908,48.747 217.908,50.847 217.908,53.127 L217.908,76.887 C217.908,79.887 217.968,80.547 223.788,84.387 L218.628,89.187 C212.028,85.647 211.068,83.367 211.068,76.887 L211.068,53.127 C211.068,50.847 211.068,48.747 210.769,46.466 L218.208,46.466" id="Fill-29" fill="#FFFFFF"></path>
            <path d="M244.128,53.127 C244.128,50.847 244.128,48.747 243.828,46.466 L251.269,46.466 C250.969,48.747 250.969,50.847 250.969,53.127 L250.969,78.987 C250.969,80.907 251.028,81.807 253.729,84.687 L247.788,89.187 C245.568,87.267 244.429,85.527 244.309,83.847 L238.309,88.587 C238.008,88.827 236.809,88.887 236.028,88.887 C231.048,88.887 225.648,84.567 225.648,75.027 C225.648,71.847 226.488,68.067 227.688,67.107 L237.648,59.127 C238.188,58.707 238.668,58.467 239.448,58.467 C240.828,58.467 242.568,58.947 244.128,59.427 L244.128,53.127 L244.128,53.127 Z M244.128,65.547 C240.168,63.687 238.608,63.507 236.208,63.507 C235.008,63.507 234.288,63.507 233.868,63.927 C232.368,65.427 231.769,70.047 231.769,72.267 C231.769,78.447 235.309,83.667 240.528,83.667 C241.969,83.667 242.988,83.307 244.128,82.827 L244.128,65.547 L244.128,65.547 Z" id="Fill-30" fill="#FFFFFF"></path>
            <path d="M264.527,48.207 L264.527,61.767 C264.527,62.427 264.287,63.087 263.867,63.507 L259.667,67.407 L259.667,52.827 L264.527,48.207" id="Fill-31" fill="#FFFFFF"></path>
            <path d="M275.267,78.267 C273.107,76.407 271.427,73.947 271.427,70.107 C271.427,68.127 271.847,66.627 273.047,65.547 C274.847,63.927 281.027,60.207 283.127,59.187 C284.507,58.527 284.927,58.467 285.887,58.467 C288.587,58.467 291.887,59.967 294.167,61.947 L288.107,67.767 C292.907,69.987 295.667,72.867 295.667,76.287 C295.667,78.927 294.467,81.387 289.307,85.107 C284.447,88.647 283.728,88.887 280.487,88.887 C277.487,88.887 273.287,87.627 269.327,83.967 L275.267,78.267 L275.267,78.267 Z M275.688,79.647 C279.407,82.287 283.067,83.487 287.688,83.487 C288.707,83.487 289.547,83.247 289.787,83.007 C289.907,82.887 289.907,82.647 289.907,82.227 C289.907,77.607 287.147,75.327 282.407,73.167 L275.688,79.647 L275.688,79.647 Z M288.047,66.147 C285.047,63.927 282.827,63.147 280.607,63.147 C279.647,63.147 278.807,63.387 278.207,63.747 C277.787,63.987 277.547,65.307 277.547,66.267 C277.547,69.567 278.207,71.067 280.667,73.227 L288.047,66.147 L288.047,66.147 Z" id="Fill-32" fill="#FFFFFF"></path>
            <path d="M131.234,120.596 C131.883,122.198 133.25,122.45 134.331,122.45 C135.086,122.45 135.5,122.342 135.933,122.234 L134.223,123.98 C134.079,124.142 133.557,124.178 133.071,124.178 C131.36,124.178 129.219,123.062 129.219,120.11 C129.219,119.246 129.398,117.662 130.119,117.175 L132.98,115.25 C133.161,115.124 133.341,115.051 133.521,115.051 C134.276,115.051 135.717,115.88 136.311,116.366 L131.234,120.596 L131.234,120.596 Z M131.145,120.146 C132.225,119.264 133.341,118.328 134.276,117.428 C133.557,116.906 132.692,116.564 132.207,116.564 C131.883,116.564 131.774,116.564 131.63,116.834 C131.307,117.428 131.108,118.58 131.108,119.228 C131.108,119.426 131.108,119.948 131.145,120.146 L131.145,120.146 Z" id="Fill-36" fill="#FFFFFF"></path>
            <path d="M138.723,120.992 C138.075,120.434 137.57,119.696 137.57,118.544 C137.57,117.95 137.696,117.5 138.057,117.175 C138.597,116.69 140.451,115.574 141.081,115.268 C141.495,115.07 141.621,115.051 141.909,115.051 C142.719,115.051 143.708,115.502 144.393,116.096 L142.575,117.841 C144.015,118.507 144.843,119.372 144.843,120.398 C144.843,121.19 144.482,121.928 142.935,123.044 C141.477,124.106 141.261,124.178 140.289,124.178 C139.389,124.178 138.128,123.8 136.94,122.702 L138.723,120.992 L138.723,120.992 Z M138.849,121.406 C139.964,122.198 141.062,122.558 142.449,122.558 C142.754,122.558 143.006,122.486 143.079,122.414 C143.115,122.378 143.115,122.306 143.115,122.18 C143.115,120.794 142.287,120.11 140.864,119.462 L138.849,121.406 L138.849,121.406 Z M142.557,117.356 C141.657,116.69 140.991,116.456 140.325,116.456 C140.037,116.456 139.785,116.528 139.604,116.636 C139.479,116.708 139.406,117.104 139.406,117.392 C139.406,118.381 139.604,118.832 140.342,119.48 L142.557,117.356 L142.557,117.356 Z" id="Fill-37" fill="#FFFFFF"></path>
            <path d="M147.308,114.007 L149.36,112.874 L149.36,115.43 L151.592,115.43 L150.44,116.672 L149.36,116.672 L149.36,120.47 C149.36,121.28 149.36,121.352 150.782,122.864 L149,124.268 C147.362,122.432 147.308,122.27 147.308,121.406 L147.308,116.672 L145.976,116.672 L147.308,115.591 L147.308,114.007" id="Fill-38" fill="#FFFFFF"></path>
            <polyline id="Fill-39" fill="#FFFFFF" points="153.302 120.631 154.706 122.306 153.302 124.268 151.934 122.45 153.302 120.631"></polyline>
            <path d="M161.726,114.259 C163.004,113.81 164.138,113.414 165.254,112.874 L165.254,122.072 C165.254,122.756 165.254,123.386 165.344,124.07 L163.112,124.07 C163.202,123.386 163.202,122.756 163.202,122.072 L163.202,114.799 L161.006,115.051 L161.726,114.259" id="Fill-40" fill="#FFFFFF"></path>
            <path d="M170.132,124.07 C171.662,121.982 172.454,120.757 173.588,118.796 L173.552,118.76 L171.302,120.146 C168.926,120.146 167.972,118.742 167.972,117.23 C167.972,116.006 168.529,115.214 169.502,114.584 C170.546,113.918 172.237,112.874 172.67,112.874 C173.12,112.874 174.29,113.414 174.812,113.954 C175.55,114.728 175.838,115.43 175.838,116.51 C175.838,117.841 175.334,119.066 171.806,124.07 L170.132,124.07 L170.132,124.07 Z M170.834,114.278 C170.258,114.278 169.97,115.43 169.97,116.24 C169.97,117.374 170.618,118.633 172.364,118.633 C172.922,118.633 173.246,118.526 173.695,118.381 C173.768,118.13 173.84,117.824 173.84,117.446 C173.84,114.962 171.248,114.278 170.834,114.278 L170.834,114.278 Z" id="Fill-41" fill="#FFFFFF"></path>
            <path d="M183.434,112.874 L183.434,120.452 L185.018,120.452 L183.434,122.018 L183.434,122.072 C183.434,122.756 183.434,123.386 183.523,124.07 L181.346,124.07 C181.436,123.386 181.436,122.756 181.436,122.072 L181.436,122.018 L176.666,122.018 C178.628,118.994 180.859,115.214 181.472,113.522 L183.434,112.874 L183.434,112.874 Z M181.436,117.482 C181.436,116.798 181.454,115.934 181.508,115.591 L181.472,115.556 L178.502,120.452 L181.436,120.452 L181.436,117.482 L181.436,117.482 Z" id="Fill-42" fill="#FFFFFF"></path>
            <path d="M186.403,114.259 C187.682,113.81 188.815,113.414 189.932,112.874 L189.932,122.072 C189.932,122.756 189.932,123.386 190.021,124.07 L187.79,124.07 C187.88,123.386 187.88,122.756 187.88,122.072 L187.88,114.799 L185.684,115.051 L186.403,114.259" id="Fill-43" fill="#FFFFFF"></path>
            <path d="M131.234,120.596 C131.883,122.198 133.25,122.45 134.331,122.45 C135.086,122.45 135.5,122.342 135.933,122.234 L134.223,123.98 C134.079,124.142 133.557,124.178 133.071,124.178 C131.36,124.178 129.219,123.062 129.219,120.11 C129.219,119.246 129.398,117.662 130.119,117.175 L132.98,115.25 C133.161,115.124 133.341,115.051 133.521,115.051 C134.276,115.051 135.717,115.88 136.311,116.366 L131.234,120.596 L131.234,120.596 Z M131.145,120.146 C132.225,119.264 133.341,118.328 134.276,117.428 C133.557,116.906 132.692,116.564 132.207,116.564 C131.883,116.564 131.774,116.564 131.63,116.834 C131.307,117.428 131.108,118.58 131.108,119.228 C131.108,119.426 131.108,119.948 131.145,120.146 L131.145,120.146 Z" id="Fill-44" fill="#FFFFFF"></path>
            <path d="M138.723,120.992 C138.075,120.434 137.57,119.696 137.57,118.544 C137.57,117.95 137.696,117.5 138.057,117.175 C138.597,116.69 140.451,115.574 141.081,115.268 C141.495,115.07 141.621,115.051 141.909,115.051 C142.719,115.051 143.708,115.502 144.393,116.096 L142.575,117.841 C144.015,118.507 144.843,119.372 144.843,120.398 C144.843,121.19 144.482,121.928 142.935,123.044 C141.477,124.106 141.261,124.178 140.289,124.178 C139.389,124.178 138.128,123.8 136.94,122.702 L138.723,120.992 L138.723,120.992 Z M138.849,121.406 C139.964,122.198 141.062,122.558 142.449,122.558 C142.754,122.558 143.006,122.486 143.079,122.414 C143.115,122.378 143.115,122.306 143.115,122.18 C143.115,120.794 142.287,120.11 140.864,119.462 L138.849,121.406 L138.849,121.406 Z M142.557,117.356 C141.657,116.69 140.991,116.456 140.325,116.456 C140.037,116.456 139.785,116.528 139.604,116.636 C139.479,116.708 139.406,117.104 139.406,117.392 C139.406,118.381 139.604,118.832 140.342,119.48 L142.557,117.356 L142.557,117.356 Z" id="Fill-45" fill="#FFFFFF"></path>
            <path d="M147.308,114.007 L149.36,112.874 L149.36,115.43 L151.592,115.43 L150.44,116.672 L149.36,116.672 L149.36,120.47 C149.36,121.28 149.36,121.352 150.782,122.864 L149,124.268 C147.362,122.432 147.308,122.27 147.308,121.406 L147.308,116.672 L145.976,116.672 L147.308,115.591 L147.308,114.007" id="Fill-46" fill="#FFFFFF"></path>
            <polyline id="Fill-47" fill="#FFFFFF" points="153.302 120.631 154.706 122.306 153.302 124.268 151.934 122.45 153.302 120.631"></polyline>
            <path d="M161.726,114.259 C163.004,113.81 164.138,113.414 165.254,112.874 L165.254,122.072 C165.254,122.756 165.254,123.386 165.344,124.07 L163.112,124.07 C163.202,123.386 163.202,122.756 163.202,122.072 L163.202,114.799 L161.006,115.051 L161.726,114.259" id="Fill-48" fill="#FFFFFF"></path>
            <path d="M170.132,124.07 C171.662,121.982 172.454,120.757 173.588,118.796 L173.552,118.76 L171.302,120.146 C168.926,120.146 167.972,118.742 167.972,117.23 C167.972,116.006 168.529,115.214 169.502,114.584 C170.546,113.918 172.237,112.874 172.67,112.874 C173.12,112.874 174.29,113.414 174.812,113.954 C175.55,114.728 175.838,115.43 175.838,116.51 C175.838,117.841 175.334,119.066 171.806,124.07 L170.132,124.07 L170.132,124.07 Z M170.834,114.278 C170.258,114.278 169.97,115.43 169.97,116.24 C169.97,117.374 170.618,118.633 172.364,118.633 C172.922,118.633 173.246,118.526 173.695,118.381 C173.768,118.13 173.84,117.824 173.84,117.446 C173.84,114.962 171.248,114.278 170.834,114.278 L170.834,114.278 Z" id="Fill-49" fill="#FFFFFF"></path>
            <path d="M183.434,112.874 L183.434,120.452 L185.018,120.452 L183.434,122.018 L183.434,122.072 C183.434,122.756 183.434,123.386 183.523,124.07 L181.346,124.07 C181.436,123.386 181.436,122.756 181.436,122.072 L181.436,122.018 L176.666,122.018 C178.628,118.994 180.859,115.214 181.472,113.522 L183.434,112.874 L183.434,112.874 Z M181.436,117.482 C181.436,116.798 181.454,115.934 181.508,115.591 L181.472,115.556 L178.502,120.452 L181.436,120.452 L181.436,117.482 L181.436,117.482 Z" id="Fill-50" fill="#FFFFFF"></path>
            <path d="M186.403,114.259 C187.682,113.81 188.815,113.414 189.932,112.874 L189.932,122.072 C189.932,122.756 189.932,123.386 190.021,124.07 L187.79,124.07 C187.88,123.386 187.88,122.756 187.88,122.072 L187.88,114.799 L185.684,115.051 L186.403,114.259" id="Fill-51" fill="#FFFFFF"></path>
        </g>
    </g>
</svg>